<svg width="203" height="188" viewBox="0 0 203 188" fill="none" xmlns="http://www.w3.org/2000/svg">
<path d="M75.9129 10.6844C33.4814 29.1096 -0.481421 35.5062 0.00516762 88.0699C0.491756 140.634 16.5492 165.455 65.208 167.889C113.867 170.322 137.71 197.578 157.173 184.437C176.637 171.296 199.02 101.698 202.426 73.4689C205.832 45.2402 194.154 38.4264 165.445 16.5249C136.736 -5.37667 108.761 -3.57943 75.9129 10.6844Z" fill="white" fill-opacity="0.15"/>
<path d="M61.4822 86.0017C63.6803 107.746 97.2276 146.158 119.743 143.905C142.259 141.652 145.217 99.5866 143.018 77.8424C140.821 56.0981 120.787 40.2973 98.2711 42.5502C75.7552 44.8036 59.2845 64.2571 61.4822 86.0017Z" fill="white"/>
<path d="M90.7314 141.296C70.9583 141.295 51.965 136.021 46.869 125.103C44.4524 119.926 45.0394 113.787 47.7351 107.403C59.5896 119.561 77.9782 129.655 93.289 133.339C96.9628 136.207 100.724 138.637 104.441 140.451C99.9365 141.013 95.3152 141.296 90.7314 141.296ZM136.166 130.82C138.301 126.619 139.895 121.689 141.05 116.449C149.74 106.918 155.539 94.8804 155.539 83.3439C155.539 76.0103 154.618 69.3808 152.367 64.1823C161.866 69.685 165.638 78.3606 166.662 84.6177C170.222 106.371 154.431 121.728 136.166 130.82Z" fill="white" fill-opacity="0.75"/>
<path d="M47.735 107.403C40.3549 99.8341 35.5072 91.466 35.5072 83.3437C35.5072 70.9372 48.6063 68.1481 64.3975 66.993C61.9005 72.8207 60.8053 79.3033 61.4823 86.0015C61.5405 86.5762 61.6202 87.1604 61.7213 87.7573C55.4837 94.0491 50.5003 100.854 47.735 107.403ZM152.367 64.1821C148.124 61.7246 142.738 59.9002 135.944 59.2061C134.335 56.9722 132.493 54.9123 130.458 53.0581C132.021 52.8376 133.496 52.7307 134.888 52.7307C143.833 52.7307 149.319 57.1462 152.367 64.1821Z" fill="white" fill-opacity="0.46"/>
<path d="M61.7211 87.7575C61.62 87.1607 61.5403 86.5764 61.4822 86.0017C60.8052 79.3035 61.9003 72.821 64.3974 66.9932C76.3607 66.1182 89.8686 66.1808 100.396 63.7099C100.194 63.7687 99.9969 63.8271 99.794 63.8874C86.6532 67.7869 72.3629 77.0231 61.7211 87.7575ZM104.317 62.6178C105.958 62.0786 107.494 61.4539 108.908 60.7266C117.466 56.3237 124.58 53.8872 130.458 53.0584C132.493 54.9125 134.334 56.9724 135.944 59.2063C133.983 59.0063 131.907 58.9002 129.707 58.9002C122.602 58.9002 114.213 60.0046 104.317 62.6178Z" fill="#F6FBFE"/>
<path d="M93.289 133.339C77.9782 129.655 59.5895 119.561 47.735 107.403C50.5003 100.855 55.4837 94.0492 61.7213 87.7574C64.0771 101.667 77.9022 121.327 93.289 133.339ZM141.05 116.449C143.941 103.322 144.071 88.2527 143.019 77.8423C142.316 70.8908 139.791 64.547 135.944 59.2062C142.738 59.9003 148.124 61.7248 152.367 64.1823C154.618 69.3808 155.539 76.0103 155.539 83.3438C155.539 94.8803 149.74 106.917 141.05 116.449Z" fill="white" fill-opacity="0.89"/>
<g filter="url(#filter0_d)">
<path d="M104.59 134.837C101.154 134.837 97.3293 134.311 93.2885 133.339C77.9018 121.327 64.0767 101.667 61.7209 87.7573C72.3627 77.0229 86.6529 67.7867 99.7938 63.8871C99.9967 63.8269 100.194 63.7685 100.396 63.7097C101.755 63.3907 103.067 63.0285 104.317 62.6176C114.213 60.0044 122.602 58.9 129.707 58.9C131.907 58.9 133.983 59.0061 135.943 59.2061C139.79 64.5469 142.316 70.8906 143.018 77.8422C144.071 88.2526 143.941 103.322 141.049 116.449C131.2 127.252 117.638 134.837 104.59 134.837Z" fill="white"/>
</g>
<path d="M126.151 49.6392C121.648 46.5356 116.478 44.3075 110.929 43.1783C111.567 40.8597 112.993 38.3549 115.104 36.1241C118.207 32.8446 121.994 31 125.014 31C126.447 31 127.709 31.4156 128.643 32.2902C131.544 35.0083 135.611 41.7099 131.035 46.5452C129.806 47.8449 128.078 48.8771 126.151 49.6392Z" fill="white" fill-opacity="0.47"/>
<path d="M117.716 51.245C115.216 51.2446 113.103 50.7657 112.074 49.801C110.511 48.3368 110.184 45.8847 110.929 43.1784C116.479 44.3075 121.648 46.5357 126.152 49.6392C123.453 50.7069 120.367 51.245 117.716 51.245Z" fill="white"/>
<path d="M38.2496 114.263C36.642 114.263 34.8434 113.856 33.1216 113.018C29.0948 111.058 27.009 107.484 28.4627 105.035C29.6472 103.039 32.5493 99.9899 35.7625 99.9899C36.4922 99.9899 37.2384 100.147 37.9835 100.51C42.0103 102.47 44.498 109.684 43.0445 112.132C42.2124 113.534 40.4016 114.263 38.2496 114.263Z" fill="#88CCEF"/>
<path d="M150.912 55.98C150.425 55.98 149.919 55.856 149.405 55.5662C146.895 54.1505 145.151 49.3098 145.955 47.735C146.385 46.8929 147.354 46.4643 148.546 46.4643C149.582 46.4643 150.788 46.7886 151.956 47.447C154.466 48.8631 155.848 51.2866 155.044 52.8614C154.405 54.1135 152.803 55.98 150.912 55.98Z" fill="#88CCEF"/>
<path d="M81.8496 82.96V97.4728C81.8496 99.0666 82.2712 100.29 83.1144 101.143C83.9575 101.974 85.1425 102.389 86.6693 102.389C88.2189 102.389 89.4153 101.974 90.2584 101.143C91.1016 100.29 91.5232 99.0666 91.5232 97.4728V82.96H96.3428V97.4728C96.3428 99.4706 95.8985 101.165 95.0097 102.557C94.1438 103.927 92.9702 104.959 91.489 105.655C90.0306 106.351 88.4012 106.699 86.601 106.699C84.8235 106.699 83.2055 106.351 81.7471 105.655C80.3115 104.959 79.172 103.927 78.3289 102.557C77.4857 101.165 77.0642 99.4706 77.0642 97.4728V82.96H81.8496Z" fill="url(#paint0_linear)"/>
<path d="M111.46 87.5394C113.716 87.5394 115.539 88.2465 116.93 89.6608C118.32 91.0526 119.015 93.0056 119.015 95.5198V106.463H114.229V96.1595C114.229 94.6779 113.853 93.5443 113.101 92.7586C112.349 91.9505 111.324 91.5464 110.025 91.5464C108.703 91.5464 107.655 91.9505 106.88 92.7586C106.128 93.5443 105.752 94.6779 105.752 96.1595V106.463H100.967V87.8088H105.752V90.1322C106.39 89.324 107.199 88.6955 108.179 88.2465C109.182 87.7751 110.275 87.5394 111.46 87.5394Z" fill="url(#paint1_linear)"/>
<path d="M125.992 85.5864C125.149 85.5864 124.443 85.3283 123.873 84.8119C123.326 84.2732 123.053 83.611 123.053 82.8253C123.053 82.0396 123.326 81.3886 123.873 80.8723C124.443 80.3335 125.149 80.0641 125.992 80.0641C126.835 80.0641 127.531 80.3335 128.077 80.8723C128.647 81.3886 128.932 82.0396 128.932 82.8253C128.932 83.611 128.647 84.2732 128.077 84.8119C127.531 85.3283 126.835 85.5864 125.992 85.5864ZM128.351 87.8088V106.463H123.565V87.8088H128.351Z" fill="url(#paint2_linear)"/>
<defs>
<filter id="filter0_d" x="57.7209" y="58.9" width="89.9005" height="83.9366" filterUnits="userSpaceOnUse" color-interpolation-filters="sRGB">
<feFlood flood-opacity="0" result="BackgroundImageFix"/>
<feColorMatrix in="SourceAlpha" type="matrix" values="0 0 0 0 0 0 0 0 0 0 0 0 0 0 0 0 0 0 127 0"/>
<feOffset dy="4"/>
<feGaussianBlur stdDeviation="2"/>
<feColorMatrix type="matrix" values="0 0 0 0 0 0 0 0 0 0 0 0 0 0 0 0 0 0 0.05 0"/>
<feBlend mode="normal" in2="BackgroundImageFix" result="effect1_dropShadow"/>
<feBlend mode="normal" in="SourceGraphic" in2="effect1_dropShadow" result="shape"/>
</filter>
<linearGradient id="paint0_linear" x1="72.0284" y1="76.7894" x2="89.6834" y2="131.086" gradientUnits="userSpaceOnUse">
<stop stop-color="#0287D1"/>
<stop offset="1" stop-color="#40BCF2"/>
</linearGradient>
<linearGradient id="paint1_linear" x1="72.0284" y1="76.7894" x2="89.6834" y2="131.086" gradientUnits="userSpaceOnUse">
<stop stop-color="#0287D1"/>
<stop offset="1" stop-color="#40BCF2"/>
</linearGradient>
<linearGradient id="paint2_linear" x1="72.0284" y1="76.7894" x2="89.6834" y2="131.086" gradientUnits="userSpaceOnUse">
<stop stop-color="#0287D1"/>
<stop offset="1" stop-color="#40BCF2"/>
</linearGradient>
</defs>
</svg>
